<?xml version="1.0" encoding="UTF-8" standalone="no"?>
<!-- Created with Inkscape (http://www.inkscape.org/) -->

<svg
   version="1.1"
   id="svg1213"
   width="800"
   height="800"
   viewBox="0 0 800 800"
   sodipodi:docname="city-lights-vector-pdv.svg"
   inkscape:version="1.2 (dc2aedaf03, 2022-05-15)"
   xmlns:inkscape="http://www.inkscape.org/namespaces/inkscape"
   xmlns:sodipodi="http://sodipodi.sourceforge.net/DTD/sodipodi-0.dtd"
   xmlns="http://www.w3.org/2000/svg"
   xmlns:svg="http://www.w3.org/2000/svg">
  <defs
     id="defs1217">
    <clipPath
       clipPathUnits="userSpaceOnUse"
       id="clipPath1243">
      <path
         d="M 0,600 H 600 V 0 H 0 Z"
         id="path1241" />
    </clipPath>
  </defs>
  <sodipodi:namedview
     id="namedview1215"
     pagecolor="#ffffff"
     bordercolor="#000000"
     borderopacity="0.25"
     inkscape:showpageshadow="2"
     inkscape:pageopacity="0.0"
     inkscape:pagecheckerboard="0"
     inkscape:deskcolor="#d1d1d1"
     showgrid="false"
     inkscape:zoom="1.04625"
     inkscape:cx="400"
     inkscape:cy="400.4779"
     inkscape:window-width="1920"
     inkscape:window-height="1017"
     inkscape:window-x="-8"
     inkscape:window-y="-8"
     inkscape:window-maximized="1"
     inkscape:current-layer="g1221">
    <inkscape:page
       x="0"
       y="0"
       id="page1219"
       width="800"
       height="800" />
  </sodipodi:namedview>
  <g
     id="g1221"
     inkscape:groupmode="layer"
     inkscape:label="Page 1"
     transform="matrix(1.3333333,0,0,-1.3333333,0,800)">
    <path
       d="M 0.854,0 H 600 V 598.283 H 0.854 Z"
       style="fill:#3a485b;fill-opacity:1;fill-rule:nonzero;stroke:none"
       id="path1223" />
    <path
       d="M 121.806,0 H 266.451 V 312.587 H 121.806 Z"
       style="fill:#292f38;fill-opacity:1;fill-rule:nonzero;stroke:none"
       id="path1225" />
    <path
       d="m 204.389,299.689 h 25.862 v -30.238 h -25.862 z m 0,-51.247 h 25.862 v -30.237 h -25.862 z m 31.034,0 h 25.862 v -30.237 h -25.862 z m -93.102,-51.245 h 25.861 V 166.96 h -25.861 z m 0,-51.245 h 25.861 v -30.239 h -25.861 z m 31.034,-51.246 h 25.861 V 64.468 H 173.355 Z M 142.321,43.461 h 25.861 V 13.222 h -25.861 z m 62.068,0 h 25.862 V 13.222 h -25.862 z m -62.068,256.228 h 25.861 v -30.238 h -25.861 z"
       style="fill:#734e1b;fill-opacity:1;fill-rule:evenodd;stroke:none"
       id="path1227" />
    <path
       d="m 204.389,94.706 h 25.862 V 64.468 h -25.862 z m -62.068,0 h 25.861 V 64.468 h -25.861 z m 31.034,51.246 h 25.861 v -30.239 h -25.861 z m 31.034,0 h 25.862 v -30.239 h -25.862 z m 0,51.245 h 25.862 V 166.96 h -25.862 z m -31.034,0 h 25.861 V 166.96 h -25.861 z m 0,51.245 h 25.861 v -30.237 h -25.861 z m -31.034,0 h 25.861 v -30.237 h -25.861 z m 31.034,51.247 h 25.861 v -30.238 h -25.861 z m 62.068,0 h 25.862 V 269.451 H 235.423 Z M 173.355,43.461 h 25.861 V 13.222 h -25.861 z"
       style="fill:#2e3949;fill-opacity:1;fill-rule:evenodd;stroke:none"
       id="path1229" />
    <path
       d="M 300.848,0 H 452.834 V 155.852 H 300.848 Z"
       style="fill:#292f38;fill-opacity:1;fill-rule:nonzero;stroke:none"
       id="path1231" />
    <path
       d="m 366.661,21.778 h 12.532 V 2.482 h -12.532 z m 35.709,0 h 12.532 V 2.482 H 402.37 Z m -17.855,31.731 h 12.533 V 34.212 h -12.533 z m 35.708,0 h 12.534 V 34.212 h -12.534 z m -35.708,31.729 h 12.533 V 65.942 h -12.533 z m 0,31.731 h 12.533 V 97.672 h -12.533 z m -35.708,0 h 12.532 V 97.672 h -12.532 z m 17.854,31.73 h 12.532 v -19.298 h -12.532 z m 53.562,-31.73 h 12.534 V 97.672 h -12.534 z m 0,31.73 h 12.534 V 129.401 H 420.223 Z M 348.807,85.238 h 12.532 V 65.942 h -12.532 z"
       style="fill:#734e1b;fill-opacity:1;fill-rule:evenodd;stroke:none"
       id="path1233" />
    <path
       d="m 384.515,21.778 h 12.533 V 2.482 h -12.533 z m 35.708,0 h 12.534 V 2.482 H 420.223 Z M 402.37,53.509 h 12.532 V 34.212 H 402.37 Z m -35.709,0 h 12.532 V 34.212 h -12.532 z m -17.854,0 h 12.532 V 34.212 h -12.532 z m 17.854,31.729 h 12.532 V 65.942 h -12.532 z m 35.709,0 h 12.532 V 65.942 H 402.37 Z m 17.853,0 h 12.534 V 65.942 h -12.534 z m -17.853,31.731 h 12.532 V 97.672 H 402.37 Z m 0,31.73 h 12.532 V 129.401 H 402.37 Z m -17.855,0 h 12.533 v -19.298 h -12.533 z m -17.854,-31.73 h 12.532 V 97.672 h -12.532 z m -17.854,31.73 h 12.532 v -19.298 h -12.532 z m 0,-126.921 h 12.532 V 2.482 h -12.532 z"
       style="fill:#2e3949;fill-opacity:1;fill-rule:evenodd;stroke:none"
       id="path1235" />
    <g
       id="g1237">
      <g
         id="g1239"
         clip-path="url(#clipPath1243)">
        <g
           id="g1245"
           transform="translate(280.957,347.625)">
          <path
             d="m 0,0 c 59.168,0 107.425,48.257 107.425,107.426 0,59.168 -48.257,107.425 -107.425,107.425 -59.168,0 -107.425,-48.257 -107.425,-107.425 C -107.425,48.257 -59.168,0 0,0"
             style="fill:#455369;fill-opacity:1;fill-rule:evenodd;stroke:none"
             id="path1247" />
        </g>
        <path
           d="M 424.188,-1.704 H 600.841 V 437.545 H 424.188 Z"
           style="fill:#18181a;fill-opacity:1;fill-rule:evenodd;stroke:none"
           id="path1249" />
        <path
           d="M 218.887,-1.704 H 356.371 V 243.168 H 218.887 Z"
           style="fill:#1c1e22;fill-opacity:1;fill-rule:evenodd;stroke:none"
           id="path1251" />
        <path
           d="m 0.854,-1.704 h 160.74 v 366.04 H 0.854 Z"
           style="fill:#18181a;fill-opacity:1;fill-rule:evenodd;stroke:none"
           id="path1253" />
        <g
           id="g1255"
           transform="translate(280.957,360.3555)">
          <path
             d="m 0,0 c 52.157,0 94.696,42.539 94.696,94.695 0,52.157 -42.539,94.697 -94.696,94.697 -52.156,0 -94.695,-42.54 -94.695,-94.697 C -94.695,42.539 -52.156,0 0,0"
             style="fill:#5b6c81;fill-opacity:1;fill-rule:evenodd;stroke:none"
             id="path1257" />
        </g>
        <g
           id="g1259"
           transform="translate(280.957,372.2915)">
          <path
             d="m 0,0 c 45.582,0 82.759,37.177 82.759,82.759 0,45.582 -37.177,82.76 -82.759,82.76 -45.582,0 -82.759,-37.178 -82.759,-82.76 C -82.759,37.177 -45.582,0 0,0"
             style="fill:#6c7d91;fill-opacity:1;fill-rule:evenodd;stroke:none"
             id="path1261" />
        </g>
        <g
           id="g1263"
           transform="translate(280.957,384.3926)">
          <path
             d="m 0,0 c 38.917,0 70.658,31.741 70.658,70.658 0,38.918 -31.741,70.659 -70.658,70.659 -38.917,0 -70.658,-31.741 -70.658,-70.659 C -70.658,31.741 -38.917,0 0,0"
             style="fill:#bcc8d7;fill-opacity:1;fill-rule:evenodd;stroke:none"
             id="path1265" />
        </g>
        <path
           d="m 82.134,355.235 h 26.598 v -9.056 H 82.134 Z m -37.322,0 H 71.41 v -9.056 H 44.812 Z M 71.409,315.797 H 44.811 v 26.942 H 71.409 Z M 7.489,303.587 H 34.086 V 294.53 H 7.489 Z M 34.086,264.149 H 7.489 v 26.942 h 26.597 z m 85.37,-63.856 h 26.598 v -9.057 h -26.598 z m 26.599,-39.438 h -26.598 v 26.942 h 26.598 z m -63.921,39.438 h 26.598 v -9.057 H 82.134 Z m 26.597,-39.438 H 82.133 v 26.942 h 26.598 z m -37.322,0 H 44.811 v 26.942 H 71.409 Z M 44.812,200.293 H 71.41 v -9.057 H 44.812 Z M 7.489,251.941 h 26.597 v -9.058 H 7.489 Z M 34.086,212.502 H 7.489 v 26.942 h 26.597 z m 85.37,39.439 h 26.598 v -9.058 h -26.598 z m 26.599,-39.439 h -26.598 v 26.942 h 26.598 z m -63.921,91.085 h 26.598 V 294.53 H 82.134 Z m 26.597,-39.438 H 82.133 v 26.942 h 26.598 z M 71.409,109.208 H 44.811 v 26.941 h 26.598 z m 37.322,0 H 82.133 v 26.941 h 26.598 z m -26.597,39.438 h 26.598 v -9.058 H 82.134 Z m 63.921,-39.438 h -26.598 v 26.941 h 26.598 z m -26.599,39.438 h 26.598 v -9.058 H 119.456 Z M 34.086,109.208 H 7.489 v 26.941 H 34.086 Z M 7.489,148.646 h 26.597 v -9.058 H 7.489 Z m 37.323,0 H 71.41 v -9.058 H 44.812 Z M 7.489,96.998 H 34.086 V 87.942 H 7.489 Z M 34.086,57.562 H 7.489 v 26.941 h 26.597 z m 48.048,39.436 h 26.598 V 87.942 H 82.134 Z M 108.731,57.562 H 82.133 v 26.941 h 26.598 z m 0,-51.649 H 82.133 v 26.941 h 26.598 z M 82.134,45.352 h 26.598 V 36.295 H 82.134 Z m -37.322,0 H 71.41 V 36.295 H 44.812 Z M 71.409,5.913 H 44.811 v 26.941 h 26.598 z m 37.322,309.884 H 82.133 v 26.942 h 26.598 z"
           style="fill:#3a485b;fill-opacity:1;fill-rule:evenodd;stroke:none"
           id="path1267" />
        <path
           d="m 119.456,355.235 h 26.598 v -9.056 H 119.456 Z M 34.086,315.797 H 7.489 v 26.942 H 34.086 Z M 7.489,355.235 h 26.597 v -9.056 H 7.489 Z m 63.92,-91.086 H 44.811 v 26.942 h 26.598 z m 74.646,0 h -26.598 v 26.942 h 26.598 z m -26.599,39.438 h 26.598 v -9.057 h -26.598 z m -74.644,0 H 71.41 V 294.53 H 44.812 Z M 71.409,212.502 H 44.811 v 26.942 h 26.598 z m 37.322,0 H 82.133 v 26.942 h 26.598 z m -26.597,39.439 h 26.598 v -9.058 H 82.134 Z m -37.322,0 H 71.41 v -9.058 H 44.812 Z M 34.086,160.855 H 7.489 v 26.942 H 34.086 Z M 7.489,200.293 h 26.597 v -9.057 H 7.489 Z M 71.409,57.562 H 44.811 v 26.941 h 26.598 z m 74.646,0 h -26.598 v 26.941 h 26.598 z m -26.599,39.436 h 26.598 v -9.056 h -26.598 z m -74.644,0 H 71.41 V 87.942 H 44.812 Z M 146.055,5.913 h -26.598 v 26.941 h 26.598 z m -26.599,39.439 h 26.598 V 36.295 H 119.456 Z M 34.086,5.913 H 7.489 V 32.854 H 34.086 Z M 7.489,45.352 H 34.086 V 36.295 H 7.489 Z m 138.566,270.445 h -26.598 v 26.942 h 26.598 z"
           style="fill:#f9de1c;fill-opacity:1;fill-rule:evenodd;stroke:none"
           id="path1269" />
        <path
           d="M 444.333,375.145 H 434.07 v 23.274 h 10.263 z m 14.28,0 h -10.26 v 23.274 h 10.26 z m 19.14,0 H 467.49 v 23.274 h 10.263 z m 14.283,0 h -10.263 v 23.274 h 10.263 z m -24.546,36.392 h 24.546 v -9.944 H 467.49 Z M 444.333,323.456 H 434.07 v 23.273 h 10.263 z m 14.28,0 h -10.26 v 23.273 h 10.26 z m -24.543,36.392 h 24.543 v -9.944 H 434.07 Z m 77.103,-36.392 h -10.26 v 23.273 h 10.26 z m 14.283,0 h -10.263 v 23.273 h 10.263 z m -24.543,36.392 h 24.543 v -9.944 h -24.543 z m 43.683,-36.392 h -10.263 v 23.273 h 10.263 z m 14.28,0 h -10.26 v 23.273 h 10.26 z m -24.543,36.392 h 24.543 v -9.944 h -24.543 z m -90,-88.081 H 434.07 v 23.273 h 10.263 z m 14.28,0 h -10.26 v 23.273 h 10.26 z m -24.543,36.391 h 24.543 v -9.944 H 434.07 Z m 77.103,-36.391 h -10.26 v 23.273 h 10.26 z m 14.283,0 h -10.263 v 23.273 h 10.263 z m -24.543,36.391 h 24.543 v -9.944 h -24.543 z m 77.103,-36.391 h -10.26 v 23.273 h 10.26 z m 14.283,0 h -10.263 v 23.273 h 10.263 z m -24.543,36.391 h 24.543 v -9.944 H 567.756 Z M 444.333,220.076 H 434.07 v 23.274 h 10.263 z m 14.28,0 h -10.26 v 23.274 h 10.26 z m -24.543,36.393 h 24.543 v -9.944 H 434.07 Z m 43.683,-36.393 H 467.49 v 23.274 h 10.263 z m 14.283,0 h -10.263 v 23.274 h 10.263 z m -24.546,36.393 h 24.546 v -9.944 H 467.49 Z m 110.526,-36.393 h -10.26 v 23.274 h 10.26 z m 14.283,0 h -10.263 v 23.274 h 10.263 z m -24.543,36.393 h 24.543 v -9.944 h -24.543 z m -90.003,-88.08 H 467.49 v 23.272 h 10.263 z m 14.283,0 h -10.263 v 23.272 h 10.263 z M 467.49,204.78 h 24.546 v -9.945 H 467.49 Z m 77.106,-36.391 h -10.263 v 23.272 h 10.263 z m 14.28,0 h -10.26 v 23.272 h 10.26 z m -24.543,36.391 h 24.543 v -9.945 h -24.543 z m 43.683,-36.391 h -10.26 v 23.272 h 10.26 z m 14.283,0 h -10.263 v 23.272 h 10.263 z m -24.543,36.391 h 24.543 v -9.945 H 567.756 Z M 444.333,116.699 H 434.07 v 23.274 h 10.263 z m 14.28,0 h -10.26 v 23.274 h 10.26 z M 434.07,153.09 h 24.543 v -9.944 H 434.07 Z m 77.103,-36.391 h -10.26 v 23.274 h 10.26 z m 14.283,0 h -10.263 v 23.274 h 10.263 z m -24.543,36.391 h 24.543 v -9.944 h -24.543 z m 10.26,-88.08 h -10.26 v 23.273 h 10.26 z m 14.283,0 h -10.263 v 23.273 h 10.263 z m -24.543,36.39 h 24.543 v -9.944 h -24.543 z m 43.683,-36.39 h -10.263 v 23.273 h 10.263 z m 14.28,0 h -10.26 v 23.273 h 10.26 z m -24.543,36.39 h 24.543 v -9.944 h -24.543 z m -90,-88.08 H 434.07 v 23.273 h 10.263 z m 14.28,0 h -10.26 v 23.273 h 10.26 z M 434.07,49.711 h 24.543 V 39.767 H 434.07 Z M 578.016,13.32 h -10.26 v 23.273 h 10.26 z m 14.283,0 h -10.263 v 23.273 h 10.263 z m -24.543,36.391 h 24.543 V 39.767 H 567.756 Z M 434.07,411.537 h 24.543 v -9.944 H 434.07 Z"
           style="fill:#f9de1c;fill-opacity:1;fill-rule:evenodd;stroke:none"
           id="path1271" />
        <path
           d="m 578.016,375.145 h -10.26 v 23.274 h 10.26 z m 14.283,0 h -10.263 v 23.274 h 10.263 z m -47.703,0 h -10.263 v 23.274 h 10.263 z m 14.28,0 h -10.26 v 23.274 h 10.26 z m -24.543,36.392 h 24.543 v -9.944 h -24.543 z m -23.16,-36.392 h -10.26 v 23.274 h 10.26 z m 14.283,0 h -10.263 v 23.274 h 10.263 z m -24.543,36.392 h 24.543 v -9.944 h -24.543 z m -23.16,-88.081 H 467.49 v 23.273 h 10.263 z m 14.283,0 h -10.263 v 23.273 h 10.263 z m -24.546,36.392 h 24.546 v -9.944 H 467.49 Z M 544.596,13.32 h -10.263 v 23.273 h 10.263 z m 14.28,0 h -10.26 v 23.273 h 10.26 z m -24.543,36.391 h 24.543 V 39.767 H 534.333 Z M 511.173,13.32 h -10.26 v 23.273 h 10.26 z m 14.283,0 h -10.263 v 23.273 h 10.263 z m -24.543,36.391 h 24.543 V 39.767 H 500.913 Z M 477.753,13.32 H 467.49 v 23.273 h 10.263 z m 14.283,0 h -10.263 v 23.273 h 10.263 z M 467.49,49.711 h 24.546 V 39.767 H 467.49 Z M 444.333,65.01 H 434.07 v 23.273 h 10.263 z m 14.28,0 h -10.26 v 23.273 h 10.26 z M 434.07,101.4 h 24.543 V 91.456 H 434.07 Z M 477.753,65.01 H 467.49 v 23.273 h 10.263 z m 14.283,0 h -10.263 v 23.273 h 10.263 z M 467.49,101.4 h 24.546 V 91.456 H 467.49 Z M 578.016,65.01 h -10.26 v 23.273 h 10.26 z m 14.283,0 h -10.263 v 23.273 h 10.263 z m -24.543,36.39 h 24.543 v -9.944 h -24.543 z m 10.26,15.299 h -10.26 v 23.274 h 10.26 z m 14.283,0 h -10.263 v 23.274 h 10.263 z m -24.543,36.391 h 24.543 v -9.944 h -24.543 z m -23.16,-36.391 h -10.263 v 23.274 h 10.263 z m 14.28,0 h -10.26 v 23.274 h 10.26 z m -24.543,36.391 h 24.543 v -9.944 h -24.543 z m -56.58,-36.391 H 467.49 v 23.274 h 10.263 z m 14.283,0 h -10.263 v 23.274 h 10.263 z M 467.49,153.09 h 24.546 v -9.944 H 467.49 Z m -23.157,15.299 H 434.07 v 23.272 h 10.263 z m 14.28,0 h -10.26 v 23.272 h 10.26 z M 434.07,204.78 h 24.543 v -9.945 H 434.07 Z m 77.103,-36.391 h -10.26 v 23.272 h 10.26 z m 14.283,0 h -10.263 v 23.272 h 10.263 z m -24.543,36.391 h 24.543 v -9.945 h -24.543 z m 43.683,15.296 h -10.263 v 23.274 h 10.263 z m 14.28,0 h -10.26 v 23.274 h 10.26 z m -24.543,36.393 h 24.543 v -9.944 h -24.543 z m -23.16,-36.393 h -10.26 v 23.274 h 10.26 z m 14.283,0 h -10.263 v 23.274 h 10.263 z m -24.543,36.393 h 24.543 v -9.944 h -24.543 z m -23.16,15.298 H 467.49 v 23.273 h 10.263 z m 14.283,0 h -10.263 v 23.273 h 10.263 z m -24.546,36.391 h 24.546 v -9.944 H 467.49 Z m 110.526,15.298 h -10.26 v 23.273 h 10.26 z m 14.283,0 h -10.263 v 23.273 h 10.263 z m -24.543,36.392 h 24.543 v -9.944 h -24.543 z m -23.16,-88.081 h -10.263 v 23.273 h 10.263 z m 14.28,0 h -10.26 v 23.273 h 10.26 z m -24.543,36.391 h 24.543 v -9.944 h -24.543 z m 33.423,103.379 h 24.543 v -9.944 h -24.543 z"
           style="fill:#3a485b;fill-opacity:1;fill-rule:evenodd;stroke:none"
           id="path1273" />
        <path
           d="m 269.185,205.537 h -8.25 v 13.352 h 8.25 z m 11.482,0 h -8.25 v 13.352 h 8.25 z m -8.25,29.258 h 8.25 v -13.354 h -8.25 z m 64.421,-29.258 h -8.25 v 13.352 h 8.25 z m 11.481,0 h -8.25 v 13.352 h 8.25 z m -8.25,29.258 h 8.25 v -13.354 h -8.25 z m -11.481,0 h 8.25 v -13.354 h -8.25 z m -93.229,-78.422 h -8.25 v 13.354 h 8.25 z m 11.483,0 h -8.251 v 13.354 h 8.251 z m -8.251,29.258 h 8.251 v -13.354 h -8.251 z m -11.482,0 h 8.25 v -13.354 h -8.25 z m 109.729,-29.258 h -8.25 v 13.354 h 8.25 z m 11.481,0 h -8.25 v 13.354 h 8.25 z m -8.25,29.258 h 8.25 v -13.354 h -8.25 z m -11.481,0 h 8.25 v -13.354 h -8.25 z m -93.229,-78.422 h -8.25 v 13.354 h 8.25 z m 11.483,0 h -8.251 v 13.354 h 8.251 z m -8.251,29.258 h 8.251 v -13.354 h -8.251 z m -11.482,0 h 8.25 v -13.354 h -8.25 z m 8.25,-78.421 h -8.25 v 13.353 h 8.25 z m 11.483,0 h -8.251 v 13.353 h 8.251 z m -8.251,29.258 h 8.251 V 73.952 h -8.251 z m -11.482,0 h 8.25 V 73.952 h -8.25 z m 42.076,-29.258 h -8.25 v 13.353 h 8.25 z m 11.482,0 h -8.25 v 13.353 h 8.25 z m -8.25,29.258 h 8.25 V 73.952 h -8.25 z m -11.482,0 h 8.25 V 73.952 h -8.25 z m 75.903,-29.258 h -8.25 v 13.353 h 8.25 z m 11.481,0 h -8.25 v 13.353 h 8.25 z m -8.25,29.258 h 8.25 V 73.952 h -8.25 z m -11.481,0 h 8.25 V 73.952 h -8.25 z M 269.185,8.883 h -8.25 v 13.353 h 8.25 z m 11.482,0 h -8.25 v 13.353 h 8.25 z m -8.25,29.259 h 8.25 V 24.787 h -8.25 z m -11.482,0 h 8.25 V 24.787 h -8.25 z m 0,196.653 h 8.25 v -13.354 h -8.25 z"
           style="fill:#df8c16;fill-opacity:1;fill-rule:evenodd;stroke:none"
           id="path1275" />
        <path
           d="m 336.838,8.883 h -8.25 v 13.353 h 8.25 z m 11.481,0 h -8.25 v 13.353 h 8.25 z m -8.25,29.259 h 8.25 V 24.787 h -8.25 z M 303.011,8.883 h -8.25 v 13.353 h 8.25 z m 11.481,0 h -8.248 v 13.353 h 8.248 z m -8.248,29.259 h 8.248 V 24.787 h -8.248 z m -11.483,0 h 8.25 V 24.787 h -8.25 z M 235.359,8.883 h -8.25 v 13.353 h 8.25 z m 11.483,0 h -8.251 v 13.353 h 8.251 z m -8.251,29.259 h 8.251 V 24.787 h -8.251 z m -11.482,0 h 8.25 V 24.787 h -8.25 z m 75.902,19.904 h -8.25 v 13.353 h 8.25 z m 11.481,0 h -8.248 v 13.353 h 8.248 z m -8.248,29.258 h 8.248 V 73.952 h -8.248 z m -11.483,0 h 8.25 V 73.952 h -8.25 z m 8.25,19.905 h -8.25 v 13.354 h 8.25 z m 11.481,0 h -8.248 v 13.354 h 8.248 z m -8.248,29.258 h 8.248 v -13.354 h -8.248 z m -11.483,0 h 8.25 v -13.354 h -8.25 z m 42.077,-29.258 h -8.25 v 13.354 h 8.25 z m 11.481,0 h -8.25 v 13.354 h 8.25 z m -8.25,29.258 h 8.25 v -13.354 h -8.25 z m -11.481,0 h 8.25 v -13.354 h -8.25 z m -59.403,-29.258 h -8.25 v 13.354 h 8.25 z m 11.482,0 h -8.25 v 13.354 h 8.25 z m -8.25,29.258 h 8.25 v -13.354 h -8.25 z m -11.482,0 h 8.25 v -13.354 h -8.25 z m 8.25,19.906 h -8.25 v 13.354 h 8.25 z m 11.482,0 h -8.25 v 13.354 h 8.25 z m -8.25,29.258 h 8.25 v -13.354 h -8.25 z m -11.482,0 h 8.25 v -13.354 h -8.25 z m 42.076,-29.258 h -8.25 v 13.354 h 8.25 z m 11.481,0 h -8.248 v 13.354 h 8.248 z m -8.248,29.258 h 8.248 v -13.354 h -8.248 z m -11.483,0 h 8.25 v -13.354 h -8.25 z m 8.25,19.906 h -8.25 v 13.352 h 8.25 z m 11.481,0 h -8.248 v 13.352 h 8.248 z m -8.248,29.258 h 8.248 v -13.354 h -8.248 z m -11.483,0 h 8.25 v -13.354 h -8.25 z m -59.402,-29.258 h -8.25 v 13.352 h 8.25 z m 11.483,0 h -8.251 v 13.352 h 8.251 z m -8.251,29.258 h 8.251 v -13.354 h -8.251 z m -11.482,0 h 8.25 v -13.354 h -8.25 z M 328.588,38.142 h 8.25 V 24.787 h -8.25 z"
           style="fill:#3a485b;fill-opacity:1;fill-rule:evenodd;stroke:none"
           id="path1277" />
        <g
           id="g1279"
           transform="translate(48.4473,555.4253)">
          <path
             d="M 0,0 1.792,-5.833 7.626,-7.625 1.792,-9.417 0,-15.251 l -1.791,5.834 -5.834,1.792 5.834,1.792 z m 20.557,-62.332 0.39,-1.269 1.268,-0.389 -1.268,-0.39 -0.39,-1.268 -0.39,1.268 -1.268,0.39 1.268,0.389 z m 22.878,-45.092 0.778,-2.537 2.537,-0.779 -2.537,-0.78 -0.778,-2.536 -0.78,2.536 -2.536,0.78 2.536,0.779 z m 30.503,-33.156 0.624,-2.029 2.028,-0.624 -2.028,-0.623 -0.624,-2.029 -0.623,2.029 -2.03,0.623 2.03,0.624 z m 44.097,-31.167 0.546,-1.775 1.775,-0.546 -1.775,-0.545 -0.546,-1.775 -0.545,1.775 -1.775,0.545 1.775,0.546 z m -29.177,129.971 0.546,-1.775 1.775,-0.545 -1.775,-0.546 -0.546,-1.776 -0.545,1.776 -1.775,0.546 1.775,0.545 z m 62.333,66.975 0.233,-0.761 0.762,-0.233 -0.762,-0.234 -0.233,-0.761 -0.234,0.761 -0.761,0.234 0.761,0.233 z M 340.18,11.937 341.503,7.625 345.816,6.3 341.503,4.976 340.18,0.664 l -1.326,4.312 -4.311,1.324 4.311,1.325 z m 90.514,-45.092 1.56,-5.073 5.071,-1.558 -5.071,-1.558 -1.56,-5.074 -1.556,5.074 -5.075,1.558 5.075,1.558 z m 25.531,-32.493 0.232,-0.761 0.762,-0.234 -0.762,-0.233 -0.232,-0.761 -0.234,0.761 -0.762,0.233 0.762,0.234 z m -121.019,-142.57 0.623,-2.029 2.029,-0.624 -2.029,-0.623 -0.623,-2.029 -0.624,2.029 -2.029,0.623 2.029,0.624 z m 10.94,-62.333 2.26,-7.356 7.356,-2.26 -7.356,-2.259 -2.26,-7.355 -2.258,7.355 -7.356,2.259 7.356,2.26 z m -7.958,-68.964 1.014,-3.298 3.298,-1.013 -3.298,-1.012 -1.014,-3.298 -1.012,3.298 -3.297,1.012 3.297,1.013 z m -68.63,66.975 0.778,-2.537 2.537,-0.779 -2.537,-0.779 -0.778,-2.536 -0.78,2.536 -2.537,0.779 2.537,0.779 z m 21.218,33.818 0.469,-1.522 1.522,-0.467 -1.522,-0.468 -0.469,-1.521 -0.467,1.521 -1.522,0.468 1.522,0.467 z m 20.226,41.114 0.233,-0.761 0.762,-0.234 -0.762,-0.233 -0.233,-0.761 -0.235,0.761 -0.76,0.233 0.76,0.234 z m 41.113,49.071 0.389,-1.269 1.268,-0.389 -1.268,-0.39 -0.389,-1.268 -0.388,1.268 -1.27,0.39 1.27,0.389 z m 101.125,163.126 0.311,-1.014 1.015,-0.312 -1.015,-0.311 -0.311,-1.015 -0.31,1.015 -1.016,0.311 1.016,0.312 z m -297.739,-224.796 0.311,-1.015 1.015,-0.311 -1.015,-0.312 -0.311,-1.014 -0.312,1.014 -1.014,0.312 1.014,0.311 z m -52.055,107.425 0.39,-1.269 1.268,-0.389 -1.268,-0.39 -0.39,-1.268 -0.389,1.268 -1.269,0.39 1.269,0.389 z m -108.419,-47.081 0.623,-2.03 2.029,-0.623 -2.029,-0.624 -0.623,-2.029 -0.623,2.029 -2.029,0.624 2.029,0.623 z m 38.792,167.768 0.39,-1.269 1.268,-0.389 -1.268,-0.39 -0.39,-1.268 -0.389,1.268 -1.269,0.39 1.269,0.389 z m 53.05,3.979 1.012,-3.298 3.298,-1.013 -3.298,-1.013 -1.012,-3.297 -1.014,3.297 -3.297,1.013 3.297,1.013 z m -111.073,-5.305 0.935,-3.044 3.044,-0.935 -3.044,-0.935 -0.935,-3.043 -0.935,3.043 -3.043,0.935 3.043,0.935 z"
             style="fill:#ffffff;fill-opacity:1;fill-rule:evenodd;stroke:none"
             id="path1281" />
        </g>
      </g>
    </g>
  </g>
</svg>
